<svg id="Capa_1" enable-background="new 0 0 512 512" height="512" viewBox="0 0 512 512" width="512" xmlns="http://www.w3.org/2000/svg"><g><path d="m421.334 216.23h-16.038l1.264-17.168c2.012-27.326-3.384-54.543-15.612-78.838v-8.63c0-4.142-3.358-7.5-7.5-7.5s-7.5 3.358-7.5 7.5c0 27.102.069 26.06-.181 28.217-3.2-3.807-6.978-7.134-11.254-9.885l-9.47-6.092c-3.483-2.241-8.125-1.234-10.365 2.25-2.241 3.483-1.233 8.124 2.25 10.365l9.47 6.092c5.076 3.265 9.149 7.69 11.95 12.944-4.94 5.127-11.872 8.322-19.537 8.322-20.146 0-24.043 0-68.259 0-9.403 0-17.053-7.65-17.053-17.053v-9.243h17.313c4.142 0 7.5-3.358 7.5-7.5s-3.358-7.5-7.5-7.5h-17.312v-34.505h25.006c3.191 0 6.241-.612 9.041-1.725l9.404 9.299c2.944 2.911 7.693 2.887 10.606-.06 2.913-2.945 2.886-7.694-.06-10.606l-8.32-8.228c2.453-3.82 3.877-8.36 3.877-13.227v-1.077h6.765c10 0 19.044-5.114 24.193-13.679 2.134-3.55.986-8.158-2.563-10.292-3.551-2.134-8.159-.986-10.292 2.563-2.448 4.072-6.581 6.408-11.338 6.408h-30.547c-4.142 0-7.5 3.358-7.5 7.5s3.358 7.5 7.5 7.5h8.783v1.077c0 5.264-4.283 9.547-9.547 9.547h-25.008v-44.221c0-7.601 6.184-13.785 13.785-13.785h1.321v1.125c0 2.807.507 5.506 1.437 8.003l-2.574 1.282c-3.708 1.846-5.217 6.349-3.37 10.057 1.836 3.689 6.333 5.226 10.057 3.37l5.838-2.908c2.669 1.552 5.692 2.584 8.938 2.951l13.276 1.501c4.152.467 7.834-2.528 8.295-6.61.465-4.116-2.494-7.83-6.61-8.295l-13.276-1.501c-1.699-.192-3.219-.912-4.407-1.985-.135-.142-.274-.278-.419-.407-1.36-1.424-2.186-3.352-2.186-5.458v-1.125h1.433c30.829 0 58.264 17.271 71.896 43.69h-12.016c-4.142 0-7.5 3.358-7.5 7.5s3.358 7.5 7.5 7.5h17.944c.243.856.474 1.719.69 2.588.85 3.411 3.909 5.688 7.271 5.688 4.887 0 8.46-4.592 7.283-9.315-10.657-42.776-48.928-72.651-93.067-72.651h-17.753c-8.426 0-16.017 3.638-21.286 9.427-5.269-5.789-12.86-9.427-21.285-9.427h-17.753c-16.986 0-33.678 4.501-48.272 13.017-3.578 2.088-4.786 6.68-2.698 10.258 2.088 3.579 6.681 4.785 10.258 2.698 12.301-7.179 26.379-10.973 40.712-10.973h1.432v1.125c0 2.106-.826 4.034-2.187 5.459-.144.129-.283.265-.417.406-1.188 1.073-2.709 1.793-4.408 1.985l-13.276 1.501c-4.116.465-7.075 4.179-6.61 8.295.465 4.112 4.173 7.074 8.295 6.61l13.276-1.501c3.246-.367 6.269-1.399 8.938-2.951l5.838 2.907c3.683 1.836 8.199.361 10.057-3.37 1.847-3.708.338-8.21-3.37-10.057l-2.573-1.282c.931-2.498 1.437-5.196 1.437-8.003v-1.124h1.321c7.601 0 13.785 6.184 13.785 13.785v44.221h-25.006c-5.264 0-9.547-4.283-9.547-9.547v-1.077h8.782c4.142 0 7.5-3.358 7.5-7.5s-3.358-7.5-7.5-7.5h-30.547c-4.757 0-8.89-2.335-11.338-6.408-2.135-3.55-6.743-4.697-10.292-2.563s-4.697 6.743-2.563 10.292c5.15 8.565 14.194 13.679 24.193 13.679h6.765v1.077c0 4.867 1.424 9.407 3.877 13.227l-8.321 8.228c-2.945 2.913-2.972 7.661-.06 10.606 2.912 2.944 7.659 2.974 10.606.06l9.404-9.299c2.799 1.113 5.849 1.725 9.04 1.725h25.007v34.506h-17.313c-4.142 0-7.5 3.358-7.5 7.5s3.358 7.5 7.5 7.5h17.313v9.243c0 9.403-7.65 17.053-17.053 17.053-44.209 0-50.475 0-68.258 0-7.665 0-14.598-3.195-19.537-8.322 2.8-5.253 6.874-9.679 11.95-12.944l9.47-6.092c3.483-2.241 4.491-6.882 2.25-10.365-2.242-3.484-6.883-4.491-10.365-2.25l-9.469 6.092c-4.276 2.75-8.054 6.078-11.254 9.885-.242-2.089-.181 2.127-.181-43.901 0-7.627 1.038-15.081 3.066-22.221h17.963c4.142 0 7.5-3.358 7.5-7.5s-3.358-7.5-7.5-7.5h-11.998c2.197-4.221 4.784-8.274 7.749-12.121 2.529-3.281 1.918-7.99-1.362-10.519-3.281-2.529-7.991-1.918-10.519 1.362-13.019 16.892-19.899 37.12-19.899 58.498v24.313c-12.228 24.296-17.624 51.514-15.612 78.839l1.264 17.168h-16.039c-21.062 0-38.197 17.135-38.197 38.197v3.357c0 34.761 27.608 63.196 62.048 64.529l.678 9.207c2.868 38.949 29.219 71.748 60.242 93.99v22.258c0 11.603-6.759 22.343-17.221 27.363l-30.88 14.818c-4.912 2.357-7.499 7.714-6.291 13.027 1.209 5.313 5.858 9.023 11.307 9.023h247.296c5.449 0 10.099-3.711 11.307-9.024s-1.378-10.67-6.291-13.026l-30.88-14.818c-10.461-5.02-17.22-15.76-17.22-27.363v-22.222c17.939-12.837 32.973-28.264 43.295-44.615 2.211-3.502 1.165-8.134-2.338-10.346-3.503-2.21-8.135-1.164-10.345 2.339-26.899 42.611-82.881 68.775-111.175 68.775-44.953 0-121.421-51.192-125.846-111.281-6.454-87.633 7.788 105.752-9.755-132.459-1.113-15.114.288-30.189 4.084-44.637 2.647 6.129 6.741 11.583 11.946 15.873-.528 3.431-.91 6.901-1.14 10.364-.871 13.103 9.554 24.247 22.696 24.247h196.028c13.132 0 23.568-11.134 22.696-24.247-.23-3.463-.612-6.932-1.14-10.364 2.752-2.268 5.212-4.877 7.315-7.763.245-.295.465-.607.661-.934 1.545-2.245 2.878-4.647 3.97-7.176 3.796 14.448 5.197 29.522 4.084 44.636l-9.755 132.459c-.28 3.809-.836 7.658-1.653 11.438-1.012 4.682 2.561 9.085 7.338 9.085 3.456 0 6.564-2.403 7.323-5.917 1.753-8.108 1.941-13.356 2.63-22.712 34.44-1.333 62.048-29.768 62.048-64.529v-3.357c.001-21.059-17.135-38.195-38.197-38.195zm-99.77 219.039v12.5c0 17.337 10.1 33.386 25.731 40.886l17.39 8.345h-217.37l17.39-8.345c15.631-7.5 25.731-23.549 25.731-40.886v-12.512c23.392 13.723 47.689 21.443 65.563 21.443 21.247.001 47.039-10.59 65.565-21.431zm-254.096-177.484v-3.357c0-12.791 10.406-23.197 23.197-23.197h17.143l5.597 76c-25.643-1.871-45.937-23.333-45.937-49.446zm188.532-90.448c5.884 7.008 14.707 11.471 24.553 11.471h10.854c-4.458 4.198-9.646 7.605-15.304 10h-40.207c-5.658-2.395-10.846-5.802-15.304-10h10.854c9.847 0 18.67-4.463 24.554-11.471zm-105.744 13.219c.082-1.226.186-2.454.31-3.679 3.987 1.254 8.227 1.931 12.622 1.931h1.786c.619 3.589 1.876 6.963 3.648 10h-10.637c-4.477 0-8.025-3.777-7.729-8.252zm30.178-1.748h20.524c2.471 3.606 5.288 6.955 8.398 10h-14.679c-6.544 0-12.133-4.174-14.243-10zm122.21 10c3.11-3.045 5.927-6.394 8.398-10h20.524c-2.11 5.826-7.698 10-14.243 10zm59.1-8.252c.296 4.468-3.245 8.252-7.729 8.252h-10.637c1.772-3.037 3.028-6.411 3.648-10h1.787c4.395 0 8.635-.677 12.621-1.931.124 1.226.228 2.453.31 3.679zm82.788 77.229c0 26.113-20.293 47.575-45.937 49.445l5.597-76h17.143c12.791 0 23.197 10.406 23.197 23.197z"/><path d="m243.528 245.788c0-4.142-3.358-7.5-7.5-7.5h-59.765c-4.142 0-7.5 3.358-7.5 7.5s3.358 7.5 7.5 7.5h59.765c4.142 0 7.5-3.358 7.5-7.5z"/><path d="m343.236 245.788c0-4.142-3.358-7.5-7.5-7.5h-39.793c-15.148 0-27.472 12.324-27.472 27.472v39.35c0 6.877-5.595 12.472-12.472 12.472-4.142 0-7.5 3.358-7.5 7.5s3.358 7.5 7.5 7.5c15.148 0 27.472-12.324 27.472-27.472v-39.35c0-6.877 5.595-12.472 12.472-12.472h39.793c4.142 0 7.5-3.358 7.5-7.5z"/><path d="m216.132 388.077h79.736c4.142 0 7.5-3.358 7.5-7.5s-3.358-7.5-7.5-7.5h-79.736c-4.142 0-7.5 3.358-7.5 7.5s3.358 7.5 7.5 7.5z"/><path d="m180.018 93.442 6.455-10.71c2.138-3.548.996-8.157-2.552-10.295-3.549-2.138-8.158-.994-10.295 2.552l-4.329 7.183h-13.314c-4.142 0-7.5 3.358-7.5 7.5s3.358 7.5 7.5 7.5h7.703c-.268 6.509 2.132 13.028 6.998 17.893l2.822 2.823c4.422 4.422 10.343 6.833 16.379 6.98-.213 1.812-.177 2.925-.177 5.022 0 8.302 3.231 16.109 9.099 21.981 2.925 2.928 7.674 2.935 10.606.005 2.93-2.928 2.933-7.676.005-10.606-3.038-3.041-4.71-7.082-4.71-11.38v-1.995c0-4.334 2.55-8.292 6.498-10.083.908-.413-2.655 1.205 11.512-5.223 3.772-1.711 5.443-6.157 3.731-9.929s-6.157-5.44-9.929-3.731c-34.084 15.465-1.164.528-22.411 10.168-3.364 1.528-7.382.798-9.996-1.816l-2.823-2.823c-2.698-2.699-3.608-7.011-1.272-11.016z"/><path d="m363.517 89.671c0-4.142-3.358-7.5-7.5-7.5h-13.314l-4.329-7.183c-2.138-3.547-6.747-4.689-10.295-2.552-3.547 2.138-4.69 6.748-2.552 10.295l6.456 10.71c2.318 3.972 1.452 8.291-1.271 11.015l-2.824 2.823c-2.613 2.614-6.63 3.343-9.996 1.816-21.512-9.76 11.244 5.101-22.411-10.168-3.769-1.71-8.217-.041-9.929 3.731-1.711 3.772-.041 8.217 3.731 9.929l11.518 5.226c3.944 1.792 6.492 5.748 6.492 10.08v1.995c0 4.298-1.673 8.339-4.71 11.38-2.928 2.93-2.925 7.679.005 10.606 2.929 2.926 7.678 2.927 10.606-.005 5.868-5.873 9.099-13.679 9.099-21.981 0-2.074.035-3.214-.177-5.022 6.035-.147 11.957-2.558 16.378-6.98l2.824-2.823c4.865-4.866 7.265-11.385 6.997-17.893h7.703c4.141.001 7.499-3.357 7.499-7.499z"/></g></svg>